<svg xmlns="http://www.w3.org/2000/svg" viewBox="0 0 410 404"><defs><linearGradient id="g" x1="4.5%" x2="97.1%" y1="2.1%" y2="98.4%"><stop stop-color="#41d1ff" offset="0%"/><stop stop-color="#bd34fe" offset="40%"/><stop stop-color="#ffea83" offset="100%"/></linearGradient></defs><path fill="url(#g)" d="M399 42 215 392c-5 10-19 10-24 0L11 42C5 32 13 20 24 22l181 31a13 13 0 0 0 4 0l181-31c11-2 19 10 13 20Z"/><path fill="#3f3d56" d="m262 116-54 128a5 5 0 0 1-9 0l-52-128c-2-6 3-12 9-11l40 7a5 5 0 0 0 6-4l5-34c1-6 10-6 11 0l5 34a5 5 0 0 0 6 4l40-7c6-1 10 5 8 11Z"/></svg>
